<svg width="14" height="14" viewBox="0 0 14 14" fill="none" xmlns="http://www.w3.org/2000/svg">
<path d="M10.2391 6.8406L4.07969 13H1V9.9203L7.15942 3.7609M10.2391 6.8406L12.448 4.63169C12.7529 4.3268 12.9053 4.17435 12.9623 3.99881C13.0126 3.84419 13.0126 3.67763 12.9623 3.523C12.9053 3.34745 12.7529 3.19501 12.448 2.89012L11.1083 1.55045C10.8042 1.2471 10.6525 1.09465 10.477 1.03768C10.3223 0.98744 10.1558 0.98744 10.0012 1.03768C9.82564 1.09465 9.67319 1.2471 9.36904 1.55122L9.3683 1.55199L7.15942 3.7609M10.2391 6.8406L7.15942 3.7609" stroke="white" stroke-width="1.72408" stroke-linecap="round" stroke-linejoin="round"/>
</svg>
