<svg width="20" height="20" viewBox="0 0 20 20" fill="none" xmlns="http://www.w3.org/2000/svg">
<g id="icon-pencilRound.svg">
<path id="Vector" d="M19.3182 10.4396C19.3182 5.28328 15.0785 1.10327 9.84856 1.10327C4.6186 1.10327 0.378876 5.28328 0.378876 10.4396C0.378876 15.5959 4.6186 19.7759 9.84856 19.7759C15.0785 19.7759 19.3182 15.5959 19.3182 10.4396Z" fill="white"/>
<path id="Vector_2" d="M11.7424 10.4396L7.95461 14.1742H6.06067V12.307L9.84853 8.57241M11.7424 10.4396L13.1009 9.10038C13.2884 8.91552 13.3822 8.82309 13.4172 8.71666C13.4481 8.62291 13.4481 8.52191 13.4172 8.42816C13.3822 8.32173 13.2884 8.2293 13.1009 8.04444L12.2771 7.23218C12.09 7.04826 11.9967 6.95582 11.8888 6.92128C11.7937 6.89082 11.6913 6.89082 11.5962 6.92128C11.4883 6.95582 11.394 7.04872 11.207 7.23312L9.84853 8.57241M11.7424 10.4396L9.84853 8.57241" stroke="#171F31" stroke-width="1.42045" stroke-linecap="round" stroke-linejoin="round"/>
</g>
</svg>
