<svg width="17" height="22" viewBox="0 0 17 22" fill="none" xmlns="http://www.w3.org/2000/svg">
<path id="Vector" d="M3.78237 14.75L0.962891 11M0.962891 11L3.78237 7.25M0.962891 11H5.66202H10.3611M5.66195 17.25C5.66195 18.415 5.66195 18.9975 5.8048 19.4562C5.89927 19.7598 6.03778 20.0356 6.21243 20.2678C6.38707 20.5001 6.59442 20.6844 6.82263 20.81C7.16755 21 7.60551 21 8.48143 21H12.9926C14.0452 21 14.5715 21 14.9737 20.7275C15.3274 20.4878 15.6149 20.1054 15.7952 19.635C16 19.1013 16 18.4013 16 17.0038V4.995C16 3.5975 16 2.89875 15.7952 2.365C15.6147 1.895 15.3271 1.5125 14.9737 1.2725C14.5715 1 14.0461 1 12.9954 1H8.48143C7.60551 1 7.16755 1 6.82263 1.19C6.59442 1.31564 6.38707 1.49987 6.21243 1.73215C6.03778 1.96444 5.89927 2.24023 5.8048 2.54375C5.66195 3.0025 5.66195 3.585 5.66195 4.75" stroke="white" stroke-width="1.5" stroke-linecap="round" stroke-linejoin="round"/>
</svg>
